<?xml version="1.0" encoding="UTF-8" standalone="no"?>
<!-- Created with Inkscape (http://www.inkscape.org/) -->

<svg
   xmlns:dc="http://purl.org/dc/elements/1.1/"
   xmlns:cc="http://creativecommons.org/ns#"
   xmlns:rdf="http://www.w3.org/1999/02/22-rdf-syntax-ns#"
   xmlns:svg="http://www.w3.org/2000/svg"
   xmlns="http://www.w3.org/2000/svg"
   xmlns:sodipodi="http://sodipodi.sourceforge.net/DTD/sodipodi-0.dtd"
   xmlns:inkscape="http://www.inkscape.org/namespaces/inkscape"
   width="744.09448819"
   height="1052.3622047"
   id="svg2"
   version="1.1"
   inkscape:version="0.47 r22583"
   sodipodi:docname="kolibr.svg"
   inkscape:export-filename="/home/littled/questy/koliber/public/images/koliber.png"
   inkscape:export-xdpi="56.318676"
   inkscape:export-ydpi="56.318676">
  <sodipodi:namedview
     id="base"
     pagecolor="#cfe6ef"
     bordercolor="#666666"
     borderopacity="1.0"
     inkscape:pageopacity="0"
     inkscape:pageshadow="2"
     inkscape:zoom="0.5"
     inkscape:cx="556.84771"
     inkscape:cy="801.20072"
     inkscape:document-units="px"
     inkscape:current-layer="layer4"
     showgrid="false"
     inkscape:window-width="927"
     inkscape:window-height="857"
     inkscape:window-x="168"
     inkscape:window-y="0"
     inkscape:window-maximized="0"
     showguides="true"
     inkscape:guide-bbox="true">
    <sodipodi:guide
       id="guide3747"
       position="984.29263,831.55757"
       orientation="1,0" />
  </sodipodi:namedview>
  <defs
     id="defs4">
    <inkscape:perspective
       sodipodi:type="inkscape:persp3d"
       inkscape:vp_x="0 : 526.18109 : 1"
       inkscape:vp_y="0 : 1000 : 0"
       inkscape:vp_z="744.09448 : 526.18109 : 1"
       inkscape:persp3d-origin="372.04724 : 350.78739 : 1"
       id="perspective10" />
    <filter
       id="filter3956"
       inkscape:collect="always">
      <feGaussianBlur
         id="feGaussianBlur3958"
         stdDeviation="0.49180788"
         inkscape:collect="always" />
    </filter>
    <inkscape:perspective
       id="perspective4283"
       inkscape:persp3d-origin="0.5 : 0.33333333 : 1"
       inkscape:vp_z="1 : 0.5 : 1"
       inkscape:vp_y="0 : 1000 : 0"
       inkscape:vp_x="0 : 0.5 : 1"
       sodipodi:type="inkscape:persp3d" />
  </defs>
  <metadata
     id="metadata7">
    <rdf:RDF>
      <cc:Work
         rdf:about="">
        <dc:format>image/svg+xml</dc:format>
        <dc:type
           rdf:resource="http://purl.org/dc/dcmitype/StillImage" />
        <dc:title></dc:title>
      </cc:Work>
    </rdf:RDF>
  </metadata>
  <g
     inkscape:groupmode="layer"
     id="layer4"
     inkscape:label="tlo"
     style="display:none">
    <rect
       y="-0.46805596"
       x="17.472622"
       height="612.7616"
       width="739.21783"
       id="rect3824"
       style="color:#000000;fill:#e8f7ff;fill-opacity:0.94117647;fill-rule:nonzero;stroke:none;stroke-width:3.70000005;marker:none;visibility:visible;display:inline;overflow:visible;enable-background:accumulate"
       inkscape:export-xdpi="48.762848"
       inkscape:export-ydpi="48.762848"
       inkscape:export-filename="/home/littled/questy/koliber/public/images/koliber.png" />
  </g>
  <g
     inkscape:groupmode="layer"
     id="layer5"
     inkscape:label="Warstwa"
     style="display:none">
    <path
       id="path3797"
       d="m 187.67281,33.603321 c -2.98834,3.498724 2.25637,7.926253 2.8439,11.543206 16.49688,37.024515 30.52689,75.292753 45.75342,112.894013 -64.39552,1.06177 -128.98595,1.62135 -193.260545,2.95916 -3.217349,0.55914 -11.327252,-0.8364 -9.640147,4.78956 5.400844,7.59893 15.9731,8.21349 23.482553,12.96706 74.428439,36.67505 149.414539,72.81353 224.049579,109.30418 -25.75698,38.66526 -50.23335,78.29988 -75.99243,116.90203 -0.61534,52.02789 -1.48509,104.0841 -1.03723,156.10327 -0.67048,3.54948 3.84447,6.84847 5.94883,3.05068 8.45513,-17.39517 15.87002,-35.5123 24.2125,-53.05002 22.58973,-49.23972 45.68458,-98.24546 68.43663,-147.41013 56.64331,-29.98334 113.56886,-59.44452 169.98386,-89.812 4.01969,-8.37587 3.13776,-17.96213 5.68487,-26.81797 2.65056,-15.02885 5.30111,-30.0577 7.95167,-45.08655 66.38485,-7.05902 132.92291,-13.21885 199.20937,-20.86664 3.29159,-0.48094 10.4777,-3.81362 6.22339,-7.6267 -14.67571,-6.12492 -31.21397,-3.24068 -46.69474,-5.14084 -30.1241,-1.52011 -60.24819,-3.04022 -90.37229,-4.56032 -16.92231,-20.50277 -34.04625,-40.83887 -50.88534,-61.41018 -44.67633,17.54085 -89.31717,35.17204 -134.01634,52.65473 C 309.79233,115.22054 249.39133,75.951499 191.08957,34.09143 c -0.96295,-0.644922 -2.36909,-1.258817 -3.41676,-0.488109 z"
       style="color:#000000;fill:#ffffff;fill-opacity:0.68235294;fill-rule:nonzero;stroke:none;stroke-width:3.70000005;marker:none;visibility:visible;display:inline;overflow:visible;enable-background:accumulate" />
  </g>
  <g
     inkscape:label="cienie"
     id="layer2"
     inkscape:groupmode="layer"
     style="display:inline">
    <path
       transform="matrix(0.84877239,0,0,0.77144544,119.7548,118.5075)"
       id="path3949"
       d="m 627.6875,383.15625 c -5.60967,0.8224 -6.09734,7.75014 -4.96875,12.15625 0,18.65625 0,37.3125 0,55.96875 6.39699,1.23418 13.14793,1.23653 19.5,0 1.77457,-15.18239 -3.43764,-31.80929 3.34375,-46 3.92741,-4.63031 11.52789,-3.33254 15.875,-2.9375 0.85062,-5.92755 2.24737,-13.05614 -0.4375,-18.40625 -6.81972,-1.62097 -14.03621,-0.16906 -20.1875,3.09375 -2.41048,-5.22746 -8.59151,-3.52774 -13.125,-3.875 z"
       style="font-size:144px;font-style:normal;font-variant:normal;font-weight:normal;font-stretch:normal;fill:#000000;fill-opacity:0.19607843;stroke:none;filter:url(#filter3956);font-family:Aller;-inkscape-font-specification:Aller" />
    <path
       style="font-size:144px;font-style:normal;font-variant:normal;font-weight:normal;font-stretch:normal;fill:#acbfc7;fill-opacity:1;stroke:none;font-family:Aller;-inkscape-font-specification:Aller"
       d="m 324.60052,380.32454 c -2.81059,-0.0262 -5.51945,0.41995 -7.84025,1.92193 -1.13859,3.35988 -1.02505,8.17337 -0.8847,12.69083 -0.0368,26.49233 -0.8978,46.39617 -3,77.00431 7.89249,3.43339 16.87416,0.49952 22.65084,-2.125 l -0.1875,-37.0814 c 8.82412,12.65189 17.66805,25.29011 26.4799,37.95046 7.40234,1.39861 14.98574,0.46647 22.39198,-0.4271 -10.51679,-15.35738 -21.07299,-30.6878 -31.60503,-46.03475 9.38783,-14.18089 18.69285,-28.41725 28.18827,-42.52647 -5.3234,-0.4915 -10.65029,-1.55841 -16.01606,-1.22028 -7.93843,-0.40247 -10.1521,8.48485 -14.24668,13.66705 l -15.19238,23.24618 0,-35.9065 c -3.34286,-0.31468 -7.12478,-1.1256 -10.73839,-1.15926 z"
       id="path4267"
       sodipodi:nodetypes="ccccccccccccccc" />
  </g>
  <g
     inkscape:label="Layer 1"
     inkscape:groupmode="layer"
     id="layer1"
     sodipodi:insensitive="true">
    <g
       id="g3785"
       transform="matrix(0.97621743,0,0,0.97621743,37.884443,30.217067)">
      <path
         inkscape:transform-center-y="16.307252"
         inkscape:transform-center-x="-30.030041"
         id="path2823"
         d="M 240.85659,207.83902 343.86895,137.98698 163.48859,17.1959 l 77.36813,190.64342 -1.3e-4,-3e-4 z"
         style="color:#000000;fill:#5e0026;fill-opacity:1;fill-rule:nonzero;stroke:none;stroke-width:3.70000005;marker:none;visibility:visible;display:inline;overflow:visible;enable-background:accumulate"
         sodipodi:nodetypes="ccccc" />
      <path
         style="color:#000000;fill:#bd004c;fill-opacity:1;fill-rule:nonzero;stroke:none;stroke-width:3.70000005;marker:none;visibility:visible;display:inline;overflow:visible;enable-background:accumulate"
         d="m 438.47751,246.59359 -96.54227,-111.62707 -165.55596,249.15811 0.26895,0.31425 261.82964,-137.84547 -3.6e-4,1.8e-4 z"
         id="path2825"
         inkscape:transform-center-x="-22.057024"
         inkscape:transform-center-y="-32.887393"
         sodipodi:nodetypes="cccccc" />
      <path
         sodipodi:nodetypes="cccc"
         inkscape:transform-center-y="33.367804"
         inkscape:transform-center-x="21.59125"
         id="path2827"
         d="m 441.07175,241.72916 16.43451,-102.6882 -110.37333,-4.78543 93.93882,107.47363 z"
         style="color:#000000;fill:#d90057;fill-opacity:1;fill-rule:nonzero;stroke:none;stroke-width:3.70000005;marker:none;visibility:visible;display:inline;overflow:visible;enable-background:accumulate" />
      <path
         sodipodi:nodetypes="cccc"
         style="color:#000000;fill:#5e0026;fill-opacity:1;fill-rule:nonzero;stroke:none;stroke-width:3.70000005;marker:none;visibility:visible;display:inline;overflow:visible;enable-background:accumulate"
         d="m 658.57143,149.30556 -200.49414,20.84155 3.60463,-30.70577 196.88951,9.86422 z"
         id="path2833"
         inkscape:transform-center-x="1.3775816"
         inkscape:transform-center-y="-2.5734826" />
      <path
         sodipodi:nodetypes="ccccc"
         inkscape:transform-center-y="-14.76085"
         inkscape:transform-center-x="6.4521385"
         id="path2829"
         d="m 475.1418,81.10046 -128.38806,48.75739 177.51957,8.46173 -49.13173,-57.21926 2.2e-4,1.4e-4 z"
         style="color:#000000;fill:#8e0039;fill-opacity:1;fill-rule:nonzero;stroke:none;stroke-width:3.70000005;marker:none;visibility:visible;display:inline;overflow:visible;enable-background:accumulate" />
      <path
         sodipodi:nodetypes="cccc"
         inkscape:transform-center-y="-32.887393"
         inkscape:transform-center-x="-22.057024"
         id="path2835"
         d="m 177.33571,387.67572 -2.02786,146.80605 89.24145,-193.24551 -87.21359,46.43946 z"
         style="color:#000000;fill:#bd004c;fill-opacity:1;fill-rule:nonzero;stroke:none;stroke-width:3.70000005;marker:none;visibility:visible;display:inline;overflow:visible;enable-background:accumulate" />
      <path
         inkscape:transform-center-y="-32.887393"
         inkscape:transform-center-x="-22.057024"
         id="path2863"
         d="M 341.62142,135.17573 220.665,321.26749 l 82.45572,-34.67407 38.5007,-151.41769 z"
         style="color:#000000;fill:#8e0039;fill-opacity:1;fill-rule:nonzero;stroke:none;stroke-width:3.70000005;marker:none;visibility:visible;display:inline;overflow:visible;enable-background:accumulate"
         sodipodi:nodetypes="cccc" />
      <path
         style="color:#000000;fill:#bd004c;fill-opacity:1;fill-rule:nonzero;stroke:none;stroke-width:3.70000005;marker:none;visibility:visible;display:inline;overflow:visible;enable-background:accumulate"
         d="M 342.4609,135.03535 8.3694938,139.72489 8.1423538,140.13493 299.91029,282.25886 342.4609,135.03535 z"
         id="path2821"
         sodipodi:nodetypes="ccccc" />
    </g>
    <path
       sodipodi:nodetypes="ccccccccccccccccccccccccccccccccccccccccccccccccccccccccccccccccccccccscscscccsssssscccccccccccccc"
       id="path3832"
       d="m 454.69878,379.15378 c -0.56332,0.0122 -1.11349,0.0281 -1.67787,0.061 -4.34337,-0.0685 -7.20527,4.5387 -5.55224,8.45038 0.4654,23.7403 -0.92067,47.5889 0.67115,71.26387 2.52402,10.93131 15.34941,15.06396 25.32064,12.75184 4.51122,0.20693 7.47355,-4.43077 5.58274,-8.41987 0.42557,-3.9352 -1.70823,-10.52338 -6.83352,-8.38937 -2.77532,1.20274 -6.95335,-0.1652 -5.55224,-4.0574 -0.42055,-23.56969 -0.0445,-47.14326 -0.18304,-70.71475 -3.90108,-0.63345 -7.83242,-1.03115 -11.77562,-0.94572 z m 67.14545,0 c -0.56837,0.0122 -1.13896,0.0281 -1.70838,0.061 -4.34336,-0.0685 -7.20526,4.5387 -5.55223,8.45038 l 0,80.69047 c 16.43151,5.77778 37.91243,7.45634 51.03786,-6.00984 12.11512,-13.52506 12.21648,-36.06284 1.52534,-50.42773 -8.11559,-9.20318 -22.893,-11.20831 -33.43544,-5.12514 l 0,-26.69344 c -3.93656,-0.63604 -7.8885,-1.03143 -11.86715,-0.94572 z m -32.03213,0.57963 c -4.0456,-0.0119 -8.56582,2.38958 -7.29112,7.10809 -0.0109,4.4796 -1.56717,12.79624 5.03362,12.99589 4.94571,0.53284 9.95805,0.27355 14.8263,-0.67115 1.02278,-6.03212 1.06833,-12.23524 0,-18.27357 -3.57622,-0.80465 -7.21965,-1.18089 -10.89093,-1.00672 -0.54072,-0.10052 -1.09993,-0.15084 -1.67787,-0.15254 z m -164.91973,0.8847 c -2.81059,-0.0262 -5.51945,0.41995 -7.84025,1.92193 -1.13859,3.35988 -1.02505,8.17337 -0.8847,12.69083 l 0,75.50431 c 6.40513,1.2697 13.05858,1.27015 19.46334,0 l 0,-37.7064 c 8.82412,12.65189 17.66805,25.29011 26.4799,37.95046 7.40234,1.39861 14.98574,0.46647 22.39198,-0.4271 -10.51679,-15.35738 -21.07299,-30.6878 -31.60503,-46.03475 9.38783,-14.18089 18.69285,-28.41725 28.18827,-42.52647 -5.3234,-0.4915 -10.65029,-1.55841 -16.01606,-1.22028 -7.93843,-0.40247 -10.1521,8.48485 -14.24668,13.66705 l -15.19238,23.24618 0,-35.9065 c -3.34286,-0.31468 -7.12478,-1.1256 -10.73839,-1.15926 z m 84.90041,22.75807 c -0.68628,-0.003 -1.35975,0.0278 -2.04396,0.061 -16.24747,-0.31175 -29.42387,15.01038 -29.37804,30.62882 -1.74078,15.08475 5.30286,33.00742 21.08019,37.2488 15.38245,4.97577 35.17373,-2.7756 39.10971,-19.37181 5.37479,-16.01404 1.46445,-37.59748 -14.8263,-45.51614 -4.30777,-2.09655 -9.13765,-3.0315 -13.9416,-3.05068 z m 200.42964,0 c -0.61678,6e-4 -1.24516,0.03 -1.86092,0.061 -15.72571,-0.23814 -28.87242,13.94103 -29.50007,29.28653 -2.12733,14.67978 3.69808,32.50563 18.94472,37.40133 12.07842,4.32816 25.69436,2.99615 37.34032,-2.04396 -0.002,-5.75575 -1.25308,-11.55146 -4.33197,-16.44316 -9.22343,3.50906 -21.95505,7.1107 -29.83564,-0.91521 -1.26272,-2.14734 -4.22743,-7.52151 0.70166,-6.00983 l 36.24207,0 c 2.84303,-14.20465 -0.84514,-32.34905 -15.16188,-38.77414 -3.91814,-1.79212 -8.22087,-2.56678 -12.53829,-2.56257 z m -131.69783,1.40331 -0.18305,0.94571 -0.12202,0.64065 c -0.76392,4.98098 -2.41102,11.84025 2.44054,15.34491 2.11512,-1.24282 5.59094,-1.21339 4.78957,2.13548 -0.41553,15.61435 -0.0116,31.26099 -0.15254,46.88894 6.2194,1.23495 12.67195,1.29553 18.88371,-0.0306 l 0,-65.92519 -25.65621,0 0,5e-5 z m 130.99617,14.3687 c 0.77061,10e-6 1.4462,0.0669 2.10497,0.21355 0.65875,0.14661 1.28349,0.37792 1.83041,0.67115 0.57175,0.26882 1.09595,0.60966 1.55585,0.97622 0.45989,0.36655 0.87223,0.75598 1.22027,1.22027 0.37286,0.46432 0.67227,0.97549 0.94571,1.52534 0.27346,0.54984 0.49712,1.13402 0.67115,1.76939 0.39773,1.2219 0.61011,2.53641 0.61013,3.90487 l -18.8837,0 c 0.17399,-1.61284 0.52196,-3.07343 1.00672,-4.33196 0.24238,-0.62925 0.50364,-1.19822 0.82368,-1.73889 0.32007,-0.54069 0.66999,-1.04273 1.06774,-1.49483 0.41017,-0.45208 0.87564,-0.85071 1.37281,-1.18977 0.49718,-0.33906 1.03267,-0.59764 1.61686,-0.82368 0.58419,-0.22605 1.22022,-0.40559 1.89142,-0.51862 0.67119,-0.11296 1.40778,-0.18303 2.16598,-0.18304 z m -200.46015,1.25078 c 0.32494,-1e-4 0.66418,0.004 1.00673,0.0306 8.49746,-0.23259 11.53287,10.38039 10.98244,17.32786 0.44067,7.10079 -1.93847,17.9385 -10.7994,18.06002 -8.02913,1.11129 -12.54043,-7.78764 -11.98917,-14.67377 -0.97055,-8.02028 0.7266,-20.74171 10.7994,-20.74462 l 0,-5e-5 z m 136.33487,0.4576 c 8.19759,0.11191 9.94056,10.16024 9.64015,16.62621 0.50722,8.95575 -6.08504,18.75656 -15.83303,17.69394 -2.03922,-0.30097 -6.7201,1.09249 -5.30818,-2.62359 0.50213,-9.226 -2.5441,-19.90712 2.41003,-28.09676 2.17796,-2.59625 5.75851,-3.61362 9.09103,-3.5998 z"
       style="font-size:144px;font-style:normal;font-variant:normal;font-weight:normal;font-stretch:normal;fill:#ffffff;fill-opacity:1;stroke:none;font-family:Aller;-inkscape-font-specification:Aller" />
    <path
       id="path3943"
       d="m 651.13203,404.3524 c -4.96797,0.0147 -6.62649,5.51576 -5.33869,9.54862 0,18.94472 0,37.88944 0,56.83416 6.27308,1.22628 12.77269,1.29172 19.03624,0 1.30003,-14.36267 -2.25214,-29.46851 2.04396,-43.31965 3.40428,-5.51672 10.98458,-5.80068 16.6262,-3.90487 0.9518,-6.03019 2.06308,-12.38724 0,-18.36509 -6.84184,-1.79924 -14.76907,-0.3717 -20.25651,3.38626 -1.36488,-5.62169 -7.82654,-3.96976 -12.1112,-4.17943 z"
       style="font-size:144px;font-style:normal;font-variant:normal;font-weight:normal;font-stretch:normal;fill:#ffffff;fill-opacity:1;stroke:none;font-family:Aller;-inkscape-font-specification:Aller" />
    <path
       d="m 649.69139,408.67722 c 0.83852,-0.15241 1.63894,-0.26676 2.40125,-0.34304 0.76229,-0.0761 1.56271,-0.11429 2.40126,-0.11435 0.83851,6e-5 1.67705,0.0382 2.51559,0.11435 0.83853,0.0763 1.60082,0.19063 2.28692,0.34304 0.22867,1.14351 0.45736,2.66812 0.68607,4.57381 0.22867,1.82959 0.34302,3.3923 0.34304,4.68817 1.60081,-2.59177 3.69714,-4.84057 6.289,-6.74639 2.66803,-1.9057 6.06028,-2.85858 10.17674,-2.85863 0.6098,5e-5 1.21965,0.0382 1.82953,0.11435 0.68604,5e-5 1.25776,0.0382 1.71518,0.11434 0.15242,0.68613 0.26677,1.41031 0.34304,2.17256 0.0762,0.76236 0.1143,1.56278 0.11434,2.40125 -4e-5,0.91483 -0.0762,1.8677 -0.22869,2.85864 -0.0762,0.99105 -0.19061,1.94392 -0.34303,2.85864 -0.60988,-0.15242 -1.25785,-0.22864 -1.94387,-0.22869 -0.60989,5e-5 -1.10538,5e-5 -1.4865,0 -2.05825,5e-5 -4.04024,0.30497 -5.94596,0.91477 -1.82956,0.53366 -3.50662,1.52464 -5.0312,2.97298 -1.4484,1.44841 -2.62997,3.4304 -3.54471,5.94596 -0.83856,2.51564 -1.25782,5.75542 -1.25781,9.71936 l 0,29.15809 c -0.83854,0.15247 -1.79142,0.26681 -2.85862,0.34305 -0.99102,0.0762 -1.90579,0.11434 -2.7443,0.11434 -0.83855,0 -1.79142,-0.0382 -2.85864,-0.11434 -0.991,-0.0763 -1.94388,-0.19058 -2.85863,-0.34305 l 0,-58.65921"
       style="font-size:144px;font-style:normal;font-variant:normal;font-weight:normal;font-stretch:normal;fill:#ffe680;fill-opacity:1;stroke:none;font-family:Aller;-inkscape-font-specification:Aller"
       id="path3768" />
  </g>
  <g
     inkscape:label="napisy"
     id="layer3"
     inkscape:groupmode="layer"
     style="display:inline"
     sodipodi:insensitive="true">
    <g
       style="fill:#ffe680"
       id="g3927"
       transform="matrix(0.97621743,0,0,0.97621743,37.884443,30.217067)">
      <path
         id="path3756"
         style="font-size:144px;font-style:normal;font-variant:normal;font-weight:normal;font-stretch:normal;fill:#ffe680;fill-opacity:1;stroke:none;font-family:Aller;-inkscape-font-specification:Aller"
         d="m 304.52792,405.01559 27.05729,-41.46443 c 1.09317,-0.15609 2.14735,-0.27322 3.16254,-0.35139 1.09317,-0.078 2.06926,-0.11705 2.92828,-0.11713 1.01508,8e-5 2.1083,0.0391 3.27968,0.11713 1.17124,0.0782 2.3816,0.1953 3.63106,0.35139 l -26.7059,40.41025 30.1027,43.80704 c -1.24946,0.15618 -2.49886,0.27331 -3.74819,0.3514 -1.17138,0.0781 -2.30365,0.11713 -3.39681,0.11713 -0.93711,0 -1.95224,-0.0391 -3.04541,-0.11713 -1.09328,-0.0781 -2.22554,-0.19522 -3.3968,-0.3514 l -29.86844,-42.75286 m -15.46131,-41.46443 c 0.93704,-0.15609 1.91313,-0.27322 2.92828,-0.35139 1.01512,-0.078 2.03026,-0.11705 3.04541,-0.11713 1.01512,8e-5 2.03026,0.0391 3.04541,0.11713 1.01511,0.0782 1.9912,0.1953 2.92828,0.35139 l 0,84.21729 c -0.93708,0.15618 -1.91317,0.27331 -2.92828,0.3514 -1.01515,0.0781 -2.03029,0.11713 -3.04541,0.11713 -1.09324,0 -2.14742,-0.0391 -3.16254,-0.11713 -1.01515,-0.0781 -1.9522,-0.19522 -2.81115,-0.3514 l 0,-84.21729" />
      <path
         id="path3758"
         style="font-size:144px;font-style:normal;font-variant:normal;font-weight:normal;font-stretch:normal;fill:#ffe680;fill-opacity:1;stroke:none;font-family:Aller;-inkscape-font-specification:Aller"
         d="m 380.66682,449.17403 c -4.68528,0 -8.78486,-0.78088 -12.29877,-2.34263 -3.51395,-1.63983 -6.44223,-3.86532 -8.78483,-6.67647 -2.34263,-2.81114 -4.0996,-6.12985 -5.2709,-9.95615 -1.09324,-3.82626 -1.63985,-7.96489 -1.63984,-12.4159 -1e-5,-4.45095 0.5466,-8.58957 1.63984,-12.4159 1.1713,-3.82623 2.92827,-7.14495 5.2709,-9.95615 2.3426,-2.81109 5.27088,-5.03658 8.78483,-6.67647 3.51391,-1.63978 7.61349,-2.45969 12.29877,-2.45976 4.68521,7e-5 8.7848,0.81998 12.29877,2.45976 3.51389,1.63989 6.44217,3.86538 8.78484,6.67647 2.34256,2.8112 4.06049,6.12992 5.15377,9.95615 1.17124,3.82633 1.7569,7.96495 1.75696,12.4159 -6e-5,4.45101 -0.58572,8.58964 -1.75696,12.4159 -1.09328,3.8263 -2.81121,7.14501 -5.15377,9.95615 -2.34267,2.81115 -5.27095,5.03664 -8.78484,6.67647 -3.51397,1.56175 -7.61356,2.34263 -12.29877,2.34263 m 0,-9.25336 c 5.38799,0 9.37045,-1.95218 11.94738,-5.85656 2.57683,-3.90436 3.86528,-9.33142 3.86533,-16.28123 -5e-5,-6.94974 -1.2885,-12.33777 -3.86533,-16.1641 -2.57693,-3.90432 -6.55939,-5.8565 -11.94738,-5.85655 -5.38806,5e-5 -9.37051,1.95223 -11.94737,5.85655 -2.49882,3.82633 -3.74822,9.21436 -3.7482,16.1641 -2e-5,6.94981 1.24938,12.37687 3.7482,16.28123 2.57686,3.90438 6.55931,5.85656 11.94737,5.85656" />
      <path
         id="path3760"
         style="font-size:144px;font-style:normal;font-variant:normal;font-weight:normal;font-stretch:normal;fill:#ffe680;fill-opacity:1;stroke:none;font-family:Aller;-inkscape-font-specification:Aller"
         d="m 423.55695,361.91133 c 0.85895,-0.15609 1.796,-0.27322 2.81115,-0.3514 1.09321,-0.078 2.0693,-0.11704 2.92828,-0.11713 0.85894,9e-5 1.79599,0.0391 2.81114,0.11713 1.09321,0.0782 2.0693,0.19531 2.92828,0.3514 l 0,67.7018 c -2e-5,2.18646 0.1952,3.90438 0.58566,5.15377 0.39041,1.2494 0.89798,2.2255 1.5227,2.92827 0.70277,0.62471 1.48364,1.05419 2.34263,1.28845 0.93702,0.15618 1.91311,0.23427 2.92827,0.23426 0.70276,1e-5 1.48363,-0.039 2.34263,-0.11713 0.93701,-0.0781 1.71789,-0.19521 2.34262,-0.35139 0.70275,2.73306 1.05415,5.70038 1.05418,8.90196 -1.09326,0.39044 -2.42074,0.6247 -3.98246,0.70279 -1.56177,0.15617 -3.00639,0.23426 -4.33385,0.23426 -2.26456,0 -4.37292,-0.27331 -6.32508,-0.81992 -1.9522,-0.54661 -3.67013,-1.44461 -5.15377,-2.69401 -1.48368,-1.24939 -2.65498,-2.92827 -3.51394,-5.03664 -0.85897,-2.10835 -1.28845,-4.72428 -1.28844,-7.84779 l 0,-70.27868" />
      <path
         id="path3762"
         style="font-size:144px;font-style:normal;font-variant:normal;font-weight:normal;font-stretch:normal;fill:#ffe680;fill-opacity:1;stroke:none;font-family:Aller;-inkscape-font-specification:Aller"
         d="m 462.30723,396.81641 -7.61353,0 c -0.15618,-0.62465 -0.27331,-1.32744 -0.35139,-2.10836 -0.0781,-0.85891 -0.11714,-1.67883 -0.11713,-2.45976 -1e-5,-0.78081 0.039,-1.56169 0.11713,-2.34262 0.0781,-0.8589 0.19521,-1.60074 0.35139,-2.22549 l 18.97525,0 0,60.08827 c -0.85899,0.15618 -1.83508,0.27331 -2.92828,0.3514 -1.01516,0.0781 -1.9522,0.11713 -2.81115,0.11713 -0.78089,0 -1.71794,-0.0391 -2.81115,-0.11713 -1.01515,-0.0781 -1.9522,-0.19522 -2.81114,-0.3514 l 0,-50.95204 m -2.57689,-22.37205 c -0.15618,-0.93698 -0.27331,-1.95211 -0.35139,-3.04541 -10e-6,-1.09314 -10e-6,-2.06924 0,-2.92828 -10e-6,-0.85888 -10e-6,-1.83497 0,-2.92828 0.0781,-1.09314 0.19521,-2.06923 0.35139,-2.92828 1.01513,-0.15608 2.10834,-0.27321 3.27967,-0.35139 1.1713,-0.078 2.18643,-0.11704 3.04541,-0.11713 0.85895,9e-5 1.87408,0.0391 3.04541,0.11713 1.17129,0.0782 2.22547,0.19531 3.16254,0.35139 0.15615,0.85905 0.23424,1.83514 0.23426,2.92828 0.0781,1.09331 0.11711,2.0694 0.11714,2.92828 -3e-5,0.85904 -0.0391,1.83514 -0.11714,2.92828 -2e-5,1.0933 -0.0781,2.10843 -0.23426,3.04541 -0.93707,0.15625 -1.99125,0.27338 -3.16254,0.35139 -1.09324,0.0782 -2.06933,0.11721 -2.92828,0.11713 -0.93706,8e-5 -1.99124,-0.039 -3.16254,-0.11713 -1.17133,-0.078 -2.26454,-0.19514 -3.27967,-0.35139" />
      <path
         id="path3764"
         style="font-size:144px;font-style:normal;font-variant:normal;font-weight:normal;font-stretch:normal;fill:#ffe680;fill-opacity:1;stroke:none;font-family:Aller;-inkscape-font-specification:Aller"
         d="m 492.30561,361.91133 c 0.85895,-0.15609 1.796,-0.27322 2.81115,-0.3514 1.0932,-0.078 2.0693,-0.11704 2.92827,-0.11713 0.85895,9e-5 1.83504,0.0391 2.92828,0.11713 1.09321,0.0782 2.0693,0.19531 2.92828,0.3514 l 0,33.03098 c 1.40555,-2.34257 3.592,-4.37284 6.55935,-6.09082 2.96728,-1.71787 6.55931,-2.57682 10.77606,-2.57689 3.59198,7e-5 6.91069,0.58573 9.95615,1.75697 3.04536,1.17137 5.66128,3.00642 7.84778,5.50517 2.18639,2.42075 3.86527,5.54425 5.03664,9.37049 1.24934,3.74823 1.87404,8.19922 1.8741,13.35295 -6e-5,10.30756 -2.92833,18.3896 -8.78483,24.24614 -5.77852,5.77847 -14.13387,8.66771 -25.06607,8.66771 -3.43587,0 -6.98885,-0.3514 -10.65893,-1.05418 -3.59204,-0.6247 -6.63744,-1.36653 -9.13623,-2.2255 l 0,-83.98302 m 11.59598,76.13524 c 1.40555,0.46853 2.88921,0.81992 4.45098,1.05418 1.63982,0.15618 3.31869,0.23427 5.03664,0.23426 2.88921,10e-6 5.54418,-0.42947 7.96492,-1.28844 2.49876,-0.93704 4.64616,-2.30356 6.44221,-4.09959 1.79597,-1.87408 3.20154,-4.21671 4.21672,-7.02787 1.09318,-2.88921 1.63979,-6.28601 1.63984,-10.19041 -5e-5,-6.48121 -1.13232,-11.51785 -3.3968,-15.10992 -2.26459,-3.59197 -6.01277,-5.38798 -11.24459,-5.38803 -1.79604,5e-5 -3.59206,0.3124 -5.38803,0.93705 -1.71796,0.54666 -3.31874,1.48371 -4.80238,2.81115 -1.48369,1.24945 -2.69404,2.96737 -3.63107,5.15377 -0.85898,2.1084 -1.28846,4.68528 -1.28844,7.73065 l 0,25.1832" />
      <path
         id="path3766"
         style="font-size:144px;font-style:normal;font-variant:normal;font-weight:normal;font-stretch:normal;fill:#ffe680;fill-opacity:1;stroke:none;font-family:Aller;-inkscape-font-specification:Aller"
         d="m 570.17951,420.59403 c 0.15616,6.55937 1.83504,11.36174 5.03664,14.40713 3.27965,3.04542 8.08202,4.56812 14.40713,4.56811 5.54417,10e-6 10.81506,-0.97608 15.81271,-2.92828 0.62464,1.17132 1.13221,2.61594 1.5227,4.33386 0.39038,1.63984 0.62464,3.27967 0.70279,4.9195 -2.57694,1.09323 -5.42713,1.91315 -8.55057,2.45976 -3.04545,0.54661 -6.44226,0.81992 -10.19041,0.81992 -5.46616,0 -10.15139,-0.74183 -14.05574,-2.2255 -3.90439,-1.56174 -7.14502,-3.70914 -9.72188,-6.44221 -2.49881,-2.81114 -4.33386,-6.0908 -5.50517,-9.83901 -1.17132,-3.82626 -1.75697,-8.00394 -1.75697,-12.53304 0,-4.45095 0.54661,-8.58957 1.63984,-12.4159 1.1713,-3.90432 2.92827,-7.26208 5.2709,-10.07327 2.34261,-2.88918 5.27089,-5.15372 8.78484,-6.79361 3.59199,-1.71787 7.80871,-2.57682 12.65016,-2.57689 4.13859,7e-5 7.76966,0.70286 10.8932,2.10837 3.12344,1.40563 5.73937,3.35781 7.84778,5.85655 2.10831,2.42076 3.7091,5.34904 4.80238,8.78484 1.09317,3.3578 1.63978,7.02791 1.63984,11.01032 -6e-5,1.09326 -0.0391,2.26457 -0.11714,3.51394 -0.0782,1.17134 -0.15623,2.18647 -0.23426,3.04541 l -40.87877,0 m 29.75131,-8.66771 c -4e-5,-2.1864 -0.31239,-4.25572 -0.93705,-6.20795 -0.54666,-2.03023 -1.40562,-3.78719 -2.57688,-5.2709 -1.09326,-1.48361 -2.53788,-2.65492 -4.33385,-3.51393 -1.71797,-0.937 -3.78728,-1.40553 -6.20795,-1.40558 -4.76337,5e-5 -8.43347,1.44467 -11.01033,4.33386 -2.49881,2.88928 -4.02152,6.91077 -4.56811,12.0645 l 29.63417,0" />
    </g>
  </g>
</svg>
