<?xml version="1.0" encoding="UTF-8" standalone="no"?>
<!-- Created with Inkscape (http://www.inkscape.org/) -->

<svg
   xmlns:dc="http://purl.org/dc/elements/1.1/"
   xmlns:cc="http://creativecommons.org/ns#"
   xmlns:rdf="http://www.w3.org/1999/02/22-rdf-syntax-ns#"
   xmlns:svg="http://www.w3.org/2000/svg"
   xmlns="http://www.w3.org/2000/svg"
   version="1.2"
   width="253.9437"
   height="118.80905"
   id="svg2">
  <defs
     id="defs4" />
  <metadata
     id="metadata7">
    <rdf:RDF>
      <cc:Work
         rdf:about="">
        <dc:format>image/svg+xml</dc:format>
        <dc:type
           rdf:resource="http://purl.org/dc/dcmitype/StillImage" />
        <dc:title></dc:title>
      </cc:Work>
    </rdf:RDF>
  </metadata>
  <g
     transform="translate(1262.7122,-209.39499)"
     id="layer1">
    <rect
       width="185.71428"
       height="107.32883"
       rx="10.762153"
       ry="8.788723"
       x="-1227.3424"
       y="215.77299"
       id="rect3079"
       style="fill:#ffd5d5;fill-opacity:1;stroke:#800000;stroke-width:1.48022318;stroke-miterlimit:4;stroke-dasharray:none" />
    <path
       d="m -495.34872,498.62999 c 6.43978,5.59873 6.85421,15.63484 1.30105,21.99511 -6.0091,6.88248 -16.7566,7.31794 -23.55842,1.35621 -7.33475,-6.42884 -7.79154,-17.90366 -1.4118,-25.15663 6.85778,-7.79642 19.07547,-8.27482 26.78898,-1.46784 7.24714,6.39544 8.68674,17.39155 3.65749,25.57673"
       transform="matrix(-0.11503035,0.99336198,-0.99336198,-0.11503035,-587.49878,857.74408)"
       id="path2987"
       style="color:#000000;fill:#ffd5d5;fill-opacity:1;fill-rule:nonzero;stroke:#800000;stroke-width:1.63800001;stroke-linecap:round;stroke-linejoin:miter;stroke-miterlimit:4;stroke-opacity:1;stroke-dasharray:none;stroke-dashoffset:0;marker:none;visibility:visible;display:inline;overflow:visible;enable-background:accumulate" />
    <path
       d="m -1044.2185,297.56447 4.042,-4.8383"
       id="path3100"
       style="color:#000000;fill:#ffd5d5;fill-opacity:1;fill-rule:nonzero;stroke:#800000;stroke-width:1.63800001;stroke-linecap:round;stroke-linejoin:miter;stroke-miterlimit:4;stroke-opacity:1;stroke-dasharray:none;stroke-dashoffset:0;marker:none;visibility:visible;display:inline;overflow:visible;enable-background:accumulate" />
    <path
       d="m -1039.8106,302.6376 5.4449,-3.1782"
       id="path3100-4"
       style="color:#000000;fill:#ffd5d5;fill-opacity:1;fill-rule:nonzero;stroke:#800000;stroke-width:1.63800001;stroke-linecap:round;stroke-linejoin:miter;stroke-miterlimit:4;stroke-opacity:1;stroke-dasharray:none;stroke-dashoffset:0;marker:none;visibility:visible;display:inline;overflow:visible;enable-background:accumulate" />
    <path
       d="m -1038.4402,281.79419 7.752,-10.22581 0.2543,12.93219"
       id="path3943"
       style="color:#000000;fill:#ffd5d5;fill-opacity:1;fill-rule:nonzero;stroke:#800000;stroke-width:1.63800001;stroke-linecap:round;stroke-linejoin:round;stroke-miterlimit:4;stroke-opacity:1;stroke-dasharray:none;stroke-dashoffset:0;marker:none;visibility:visible;display:inline;overflow:visible;enable-background:accumulate" />
    <path
       d="m -1026.5834,288.82825 11.9959,-4.55614 -6.6447,11.09751"
       id="path3943-0"
       style="color:#000000;fill:#ffd5d5;fill-opacity:1;fill-rule:nonzero;stroke:#800000;stroke-width:1.63800001;stroke-linecap:round;stroke-linejoin:round;stroke-miterlimit:4;stroke-opacity:1;stroke-dasharray:none;stroke-dashoffset:0;marker:none;visibility:visible;display:inline;overflow:visible;enable-background:accumulate" />
    <text
       x="-1201.6317"
       y="230.5255"
       id="text4010"
       xml:space="preserve"
       style="font-size:11px;font-style:normal;font-weight:normal;line-height:125%;letter-spacing:0px;word-spacing:0px;fill:#000000;fill-opacity:1;stroke:none;font-family:Bitstream Vera Sans"><tspan
         x="-1201.6317"
         y="230.5255"
         id="tspan4012" /></text>
    <text
       x="-1210.733"
       y="233.93733"
       id="text4014"
       xml:space="preserve"
       style="font-size:11px;font-style:normal;font-weight:normal;line-height:125%;letter-spacing:0px;word-spacing:0px;fill:#000000;fill-opacity:1;stroke:none;font-family:Bitstream Vera Sans"><tspan
         x="-1210.733"
         y="233.93733"
         id="tspan4016" /></text>
    <text
       x="-1139.2882"
       y="233.93733"
       id="text4018"
       xml:space="preserve"
       style="font-size:11px;font-style:normal;font-weight:normal;text-align:center;line-height:125%;letter-spacing:0px;word-spacing:0px;text-anchor:middle;fill:#000000;fill-opacity:1;stroke:none;font-family:Bitstream Vera Sans"><tspan
         x="-1139.2882"
         y="233.93733"
         id="tspan4020" /></text>
    <text
       x="-1136.0988"
       y="233.93733"
       id="text4026"
       xml:space="preserve"
       style="font-size:11px;font-style:normal;font-weight:normal;text-align:center;line-height:125%;letter-spacing:0px;word-spacing:0px;text-anchor:middle;fill:#000000;fill-opacity:1;stroke:none;font-family:Bitstream Vera Sans"><tspan
         x="-1136.0988"
         y="233.93733"
         id="tspan4028" /></text>
    <path
       d="m -495.34872,498.62999 c 6.43978,5.59873 6.85421,15.63484 1.30105,21.99511 -6.0091,6.88248 -16.7566,7.31794 -23.55842,1.35621 -7.33475,-6.42884 -7.79154,-17.90366 -1.4118,-25.15663 6.85778,-7.79642 19.07547,-8.27482 26.78898,-1.46784 7.24714,6.39544 8.68674,17.39155 3.65749,25.57673"
       transform="matrix(0.31399823,0.94942356,0.94942356,-0.31399823,-1558.8723,903.33996)"
       id="path2987-2"
       style="color:#000000;fill:#ffd5d5;fill-opacity:1;fill-rule:nonzero;stroke:#800000;stroke-width:1.63800001;stroke-linecap:round;stroke-linejoin:miter;stroke-miterlimit:4;stroke-opacity:1;stroke-dasharray:none;stroke-dashoffset:0;marker:none;visibility:visible;display:inline;overflow:visible;enable-background:accumulate" />
    <path
       d="m -1225.183,262.21161 -4.9389,-3.91844"
       id="path3100-0"
       style="color:#000000;fill:#ffd5d5;fill-opacity:1;fill-rule:nonzero;stroke:#800000;stroke-width:1.63800001;stroke-linecap:round;stroke-linejoin:miter;stroke-miterlimit:4;stroke-opacity:1;stroke-dasharray:none;stroke-dashoffset:0;marker:none;visibility:visible;display:inline;overflow:visible;enable-background:accumulate" />
    <path
       d="m -1228.471,268.07288 -5.9762,-2.00847"
       id="path3100-4-6"
       style="color:#000000;fill:#ffd5d5;fill-opacity:1;fill-rule:nonzero;stroke:#800000;stroke-width:1.63800001;stroke-linecap:round;stroke-linejoin:miter;stroke-miterlimit:4;stroke-opacity:1;stroke-dasharray:none;stroke-dashoffset:0;marker:none;visibility:visible;display:inline;overflow:visible;enable-background:accumulate" />
    <path
       d="m -1234.038,247.94002 -9.6639,-8.44213 2.3724,12.71523"
       id="path3943-1"
       style="color:#000000;fill:#ffd5d5;fill-opacity:1;fill-rule:nonzero;stroke:#800000;stroke-width:1.63800001;stroke-linecap:round;stroke-linejoin:round;stroke-miterlimit:4;stroke-opacity:1;stroke-dasharray:none;stroke-dashoffset:0;marker:none;visibility:visible;display:inline;overflow:visible;enable-background:accumulate" />
    <path
       d="m -1244.2229,257.23146 -12.6703,-2.03004 8.7563,9.52022"
       id="path3943-0-5"
       style="color:#000000;fill:#ffd5d5;fill-opacity:1;fill-rule:nonzero;stroke:#800000;stroke-width:1.63800001;stroke-linecap:round;stroke-linejoin:round;stroke-miterlimit:4;stroke-opacity:1;stroke-dasharray:none;stroke-dashoffset:0;marker:none;visibility:visible;display:inline;overflow:visible;enable-background:accumulate" />
    <g
       transform="translate(1.1890194,1.8910305)"
       id="flowRoot4030"
       style="font-size:11px;font-style:normal;font-variant:normal;font-weight:normal;font-stretch:normal;text-align:center;line-height:125%;letter-spacing:0px;word-spacing:0px;writing-mode:lr-tb;text-anchor:middle;fill:#000000;fill-opacity:1;stroke:none;font-family:Serif;-inkscape-font-specification:Serif">
      <path
         d="m -1170.7529,231.53935 c -0.1914,0.0182 -0.3988,0.098 -0.6221,0.23926 -0.2188,0.14128 -0.3783,0.35319 -0.4785,0.63574 -0.2279,0.66993 -0.4444,1.30567 -0.6494,1.90723 -0.2006,0.59701 -0.4261,1.2692 -0.6768,2.0166 -0.082,0.23698 -0.1663,0.49219 -0.2529,0.76562 -0.082,0.27344 -0.1573,0.53549 -0.2256,0.78614 l -0.5879,0 -1.8115,-4.96289 -1.8252,4.96289 -0.5606,0 c -0.3418,-1.01172 -0.6767,-2.01432 -1.0048,-3.00782 -0.3236,-0.99804 -0.6107,-1.8662 -0.8614,-2.60449 -0.073,-0.21419 -0.2119,-0.3828 -0.417,-0.50586 -0.205,-0.12304 -0.4033,-0.19596 -0.5947,-0.21875 l 0,-0.45117 3.0078,0 0,0.47852 c -0.1504,0.005 -0.3144,0.0296 -0.4922,0.0752 -0.1731,0.0456 -0.2597,0.12078 -0.2597,0.22559 0,0.0182 0.01,0.057 0.02,0.11621 0.018,0.0593 0.039,0.12305 0.062,0.1914 0.1458,0.47853 0.3099,1.01401 0.4922,1.60645 0.1868,0.58789 0.4261,1.35352 0.7178,2.29687 l 1.7226,-4.85351 0.6563,0 1.7568,4.78516 c 0.196,-0.61068 0.3896,-1.20085 0.5811,-1.77051 0.1959,-0.57422 0.3668,-1.11198 0.5127,-1.61328 0.032,-0.11849 0.061,-0.22558 0.089,-0.32129 0.032,-0.10026 0.048,-0.19824 0.048,-0.29395 0,-0.082 -0.036,-0.15494 -0.1094,-0.21875 -0.073,-0.0638 -0.1618,-0.1162 -0.2666,-0.15722 -0.091,-0.0365 -0.1914,-0.0638 -0.3008,-0.082 -0.1048,-0.0182 -0.1823,-0.0273 -0.2324,-0.0273 l 0,-0.4375 2.5635,0 0,0.4375"
         id="path3009"
         style="font-size:14px;line-height:125%;font-family:Georgia;-inkscape-font-specification:Georgia" />
      <path
         d="m -1164.2998,231.90166 c 0.2689,0.31901 0.4762,0.69043 0.6221,1.11425 0.1503,0.41928 0.2255,0.90007 0.2256,1.44239 -10e-5,0.5332 -0.089,1.02083 -0.2667,1.46289 -0.1777,0.4375 -0.4124,0.8112 -0.7041,1.12109 -0.3053,0.31445 -0.6448,0.55599 -1.0185,0.72461 -0.3737,0.16862 -0.7702,0.25293 -1.1895,0.25293 -0.4056,0 -0.7382,-0.0456 -0.998,-0.13672 -0.2598,-0.0911 -0.4717,-0.19824 -0.6357,-0.32129 l -0.055,0 0,2.02344 c 0,0.16406 0.032,0.30078 0.096,0.41016 0.064,0.10937 0.1617,0.18912 0.2939,0.23925 0.1094,0.041 0.2643,0.0798 0.4649,0.11621 0.205,0.041 0.3737,0.0638 0.5058,0.0684 l 0,0.45801 -3.7666,0 0,-0.45801 c 0.1413,-0.009 0.278,-0.0205 0.4102,-0.0342 0.1321,-0.0137 0.2506,-0.0365 0.3554,-0.0684 0.1368,-0.0456 0.2325,-0.12532 0.2871,-0.23925 0.055,-0.11394 0.082,-0.24838 0.082,-0.40332 l 0,-7.1709 c 0,-0.13672 -0.034,-0.26888 -0.1026,-0.39649 -0.068,-0.1276 -0.1572,-0.23013 -0.2666,-0.30761 -0.082,-0.0547 -0.1959,-0.0957 -0.3418,-0.12305 -0.1458,-0.0319 -0.2871,-0.0524 -0.4238,-0.0615 l 0,-0.44434 2.2969,-0.15039 0.096,0.082 0,0.75879 0.055,0.0137 c 0.237,-0.27343 0.5309,-0.50129 0.8818,-0.68359 0.3509,-0.18229 0.6996,-0.27343 1.0459,-0.27344 0.4193,1e-5 0.8021,0.0889 1.1485,0.2666 0.3509,0.17774 0.6516,0.417 0.9023,0.71778 m -1.1143,4.84667 c 0.1823,-0.28255 0.3168,-0.61067 0.4034,-0.98437 0.087,-0.3737 0.1298,-0.79069 0.1298,-1.25098 0,-0.33723 -0.036,-0.68131 -0.1093,-1.03222 -0.073,-0.35091 -0.1869,-0.65625 -0.3418,-0.91602 -0.155,-0.26432 -0.3578,-0.47851 -0.6084,-0.64258 -0.2507,-0.16405 -0.5515,-0.24608 -0.9024,-0.24609 -0.3372,1e-5 -0.6243,0.0752 -0.8613,0.22559 -0.237,0.14583 -0.4421,0.32129 -0.6152,0.52636 l 0,3.98535 c 0.041,0.12305 0.1071,0.25066 0.1982,0.38282 0.096,0.13216 0.2005,0.24609 0.3145,0.34179 0.1412,0.11394 0.2939,0.20736 0.458,0.28028 0.164,0.0684 0.3645,0.10254 0.6015,0.10254 0.2552,0 0.5013,-0.0661 0.7383,-0.19825 0.237,-0.13671 0.4352,-0.32812 0.5947,-0.57422"
         id="path3011"
         style="font-size:14px;line-height:125%;font-family:Georgia;-inkscape-font-specification:Georgia" />
      <path
         d="m -1157.2861,231.97001 c 0,0.23243 -0.057,0.43979 -0.1709,0.62207 -0.114,0.17774 -0.2894,0.26661 -0.5264,0.26661 -0.2552,0 -0.4512,-0.0661 -0.5879,-0.19825 -0.1322,-0.13215 -0.1982,-0.27799 -0.1982,-0.4375 0,-0.10025 0.01,-0.1914 0.021,-0.27343 0.018,-0.082 0.034,-0.16406 0.048,-0.2461 -0.2142,1e-5 -0.4648,0.0866 -0.7519,0.25977 -0.2871,0.17318 -0.531,0.41927 -0.7315,0.73828 l 0,3.92383 c 0,0.1595 0.03,0.28939 0.089,0.38965 0.064,0.10026 0.1618,0.17545 0.2939,0.22558 0.114,0.0456 0.2598,0.0798 0.4375,0.10254 0.1823,0.0228 0.3396,0.0387 0.4717,0.0478 l 0,0.45117 -3.5547,0 0,-0.45117 c 0.1049,-0.009 0.2119,-0.0182 0.3213,-0.0273 0.114,-0.009 0.2119,-0.0273 0.294,-0.0547 0.1276,-0.041 0.221,-0.11165 0.2802,-0.21191 0.064,-0.10482 0.096,-0.23926 0.096,-0.40332 l 0,-4.16309 c 0,-0.14127 -0.034,-0.28027 -0.1025,-0.41699 -0.064,-0.13671 -0.1549,-0.24609 -0.2734,-0.32813 -0.087,-0.0547 -0.1892,-0.0934 -0.3076,-0.11621 -0.1185,-0.0273 -0.2461,-0.0456 -0.3829,-0.0547 l 0,-0.44434 2.2422,-0.15039 0.096,0.0957 0,0.9502 0.034,0 c 0.2826,-0.36914 0.597,-0.64941 0.9434,-0.84082 0.3463,-0.1914 0.6631,-0.28711 0.9502,-0.28711 0.2871,0 0.5195,0.0934 0.6972,0.28027 0.1823,0.18686 0.2735,0.43751 0.2735,0.75195"
         id="path3013"
         style="font-size:14px;line-height:125%;font-family:Georgia;-inkscape-font-specification:Georgia" />
      <path
         d="m -1150.1357,234.40361 c 0,0.47396 -0.075,0.94108 -0.2256,1.40137 -0.1504,0.45573 -0.3646,0.8431 -0.6426,1.1621 -0.3145,0.36459 -0.679,0.63575 -1.0938,0.81348 -0.4147,0.17774 -0.8795,0.2666 -1.3945,0.2666 -0.4284,0 -0.8363,-0.0797 -1.2236,-0.23925 -0.3874,-0.16407 -0.7315,-0.40105 -1.0322,-0.71094 -0.2963,-0.30534 -0.5333,-0.67676 -0.711,-1.11426 -0.1732,-0.44206 -0.2598,-0.93652 -0.2598,-1.4834 0,-1.05273 0.3054,-1.91406 0.9161,-2.58398 0.6152,-0.66992 1.4196,-1.00488 2.4131,-1.00489 0.9433,1e-5 1.7203,0.31902 2.331,0.95704 0.6152,0.63346 0.9229,1.47884 0.9229,2.53613 m -1.4151,0.0137 c 0,-0.34179 -0.034,-0.70182 -0.1025,-1.08008 -0.068,-0.38281 -0.1709,-0.70637 -0.3076,-0.9707 -0.1459,-0.28255 -0.3373,-0.50813 -0.5743,-0.67676 -0.2369,-0.17317 -0.5263,-0.25976 -0.8681,-0.25976 -0.3509,0 -0.6517,0.0866 -0.9024,0.25976 -0.2461,0.17318 -0.4466,0.41016 -0.6015,0.71094 -0.1459,0.278 -0.2484,0.59473 -0.3076,0.95019 -0.059,0.35548 -0.089,0.69955 -0.089,1.03223 0,0.4375 0.034,0.8431 0.1025,1.2168 0.073,0.36914 0.1869,0.69954 0.3418,0.99121 0.155,0.29167 0.3487,0.52181 0.5811,0.69043 0.237,0.16406 0.5286,0.24609 0.875,0.24609 0.5696,0 1.0208,-0.27571 1.3535,-0.82715 0.3327,-0.55143 0.499,-1.31249 0.499,-2.2832"
         id="path3015"
         style="font-size:14px;line-height:125%;font-family:Georgia;-inkscape-font-specification:Georgia" />
      <path
         d="m -1139.1162,231.53935 c -0.1914,0.0182 -0.3988,0.098 -0.6221,0.23926 -0.2187,0.14128 -0.3782,0.35319 -0.4785,0.63574 -0.2279,0.66993 -0.4443,1.30567 -0.6494,1.90723 -0.2005,0.59701 -0.4261,1.2692 -0.6768,2.0166 -0.082,0.23698 -0.1663,0.49219 -0.2529,0.76562 -0.082,0.27344 -0.1572,0.53549 -0.2256,0.78614 l -0.5879,0 -1.8115,-4.96289 -1.8252,4.96289 -0.5605,0 c -0.3418,-1.01172 -0.6768,-2.01432 -1.0049,-3.00782 -0.3236,-0.99804 -0.6107,-1.8662 -0.8614,-2.60449 -0.073,-0.21419 -0.2119,-0.3828 -0.4169,-0.50586 -0.2051,-0.12304 -0.4034,-0.19596 -0.5948,-0.21875 l 0,-0.45117 3.0078,0 0,0.47852 c -0.1504,0.005 -0.3144,0.0296 -0.4921,0.0752 -0.1732,0.0456 -0.2598,0.12078 -0.2598,0.22559 0,0.0182 0.01,0.057 0.02,0.11621 0.018,0.0593 0.039,0.12305 0.062,0.1914 0.1459,0.47853 0.3099,1.01401 0.4922,1.60645 0.1869,0.58789 0.4261,1.35352 0.7178,2.29687 l 1.7226,-4.85351 0.6563,0 1.7568,4.78516 c 0.196,-0.61068 0.3897,-1.20085 0.5811,-1.77051 0.1959,-0.57422 0.3668,-1.11198 0.5127,-1.61328 0.032,-0.11849 0.062,-0.22558 0.089,-0.32129 0.032,-0.10026 0.048,-0.19824 0.048,-0.29395 0,-0.082 -0.036,-0.15494 -0.1094,-0.21875 -0.073,-0.0638 -0.1618,-0.1162 -0.2666,-0.15722 -0.091,-0.0365 -0.1914,-0.0638 -0.3008,-0.082 -0.1048,-0.0182 -0.1823,-0.0273 -0.2324,-0.0273 l 0,-0.4375 2.5635,0 0,0.4375"
         id="path3017"
         style="font-size:14px;line-height:125%;font-family:Georgia;-inkscape-font-specification:Georgia" />
      <path
         d="m -1132.4375,237.71904 c -0.2142,0.0775 -0.4033,0.139 -0.5674,0.18457 -0.1595,0.0501 -0.3418,0.0752 -0.5469,0.0752 -0.3554,0 -0.6403,-0.082 -0.8545,-0.24609 -0.2096,-0.16862 -0.344,-0.41243 -0.4033,-0.73145 l -0.041,0 c -0.2962,0.32813 -0.6152,0.57878 -0.957,0.75196 -0.3373,0.17317 -0.7451,0.25976 -1.2237,0.25976 -0.5058,0 -0.9228,-0.15494 -1.2509,-0.46484 -0.3236,-0.3099 -0.4854,-0.71549 -0.4854,-1.2168 0,-0.25976 0.036,-0.49218 0.1094,-0.69726 0.073,-0.20508 0.1823,-0.38965 0.3281,-0.55371 0.114,-0.13672 0.2643,-0.25749 0.4512,-0.36231 0.1868,-0.10937 0.3623,-0.19596 0.5264,-0.25976 0.205,-0.0775 0.6198,-0.22103 1.2441,-0.43067 0.6289,-0.20963 1.0527,-0.37369 1.2715,-0.49219 l 0,-0.67675 c 0,-0.0592 -0.014,-0.17318 -0.041,-0.3418 -0.023,-0.16861 -0.075,-0.32812 -0.1573,-0.47852 -0.091,-0.16861 -0.221,-0.31444 -0.3896,-0.4375 -0.1641,-0.12759 -0.3988,-0.1914 -0.7041,-0.1914 -0.2096,0 -0.4056,0.0365 -0.5879,0.10937 -0.1777,0.0684 -0.3031,0.14128 -0.376,0.21875 0,0.0911 0.02,0.22559 0.061,0.40332 0.046,0.17774 0.068,0.34181 0.068,0.49219 0,0.15951 -0.073,0.30534 -0.2187,0.4375 -0.1413,0.13217 -0.3396,0.19825 -0.5948,0.19824 -0.2278,1e-5 -0.3965,-0.0798 -0.5058,-0.23926 -0.1048,-0.16405 -0.1573,-0.34634 -0.1573,-0.54687 0,-0.20963 0.073,-0.41015 0.2188,-0.60156 0.1504,-0.1914 0.3441,-0.3623 0.5811,-0.5127 0.205,-0.1276 0.4534,-0.23469 0.7451,-0.32129 0.2916,-0.0911 0.5765,-0.13671 0.8545,-0.13672 0.3828,1e-5 0.7155,0.0274 0.998,0.082 0.2871,0.0501 0.5469,0.16179 0.7793,0.33496 0.2324,0.16862 0.4079,0.39877 0.5264,0.69043 0.123,0.28711 0.1845,0.65853 0.1845,1.11425 0,0.6517 -0.01,1.23048 -0.021,1.73633 -0.014,0.50131 -0.02,1.05046 -0.02,1.64746 0,0.17774 0.03,0.31901 0.089,0.42383 0.064,0.10482 0.1595,0.19369 0.2871,0.2666 0.068,0.041 0.1755,0.0638 0.3213,0.0684 0.1504,0.005 0.303,0.007 0.458,0.007 l 0,0.4375 m -2.3857,-3.60938 c -0.3874,0.11394 -0.7269,0.22559 -1.0186,0.33496 -0.2917,0.10938 -0.5628,0.2461 -0.8135,0.41016 -0.2278,0.15495 -0.4079,0.33952 -0.54,0.55371 -0.1322,0.20964 -0.1983,0.46029 -0.1983,0.75195 0,0.37826 0.098,0.65626 0.294,0.83399 0.2005,0.17773 0.4534,0.2666 0.7588,0.2666 0.3235,0 0.6084,-0.0775 0.8545,-0.23242 0.2461,-0.15951 0.4534,-0.34635 0.622,-0.56055 l 0.041,-2.3584"
         id="path3019"
         style="font-size:14px;line-height:125%;font-family:Georgia;-inkscape-font-specification:Georgia" />
      <path
         d="m -1124.3848,237.71904 -2.3515,0.15039 -0.1026,-0.0957 0,-0.62891 -0.055,-0.0137 c -0.2369,0.26432 -0.5309,0.48079 -0.8818,0.64941 -0.3463,0.16862 -0.7041,0.25293 -1.0732,0.25293 -0.3828,0 -0.7543,-0.0843 -1.1143,-0.25293 -0.3555,-0.17318 -0.6654,-0.41471 -0.9297,-0.72461 -0.2689,-0.31445 -0.4831,-0.6927 -0.6426,-1.13476 -0.1549,-0.44206 -0.2324,-0.92969 -0.2324,-1.46289 0,-0.48763 0.084,-0.9502 0.253,-1.3877 0.1686,-0.43749 0.401,-0.82031 0.6972,-1.14844 0.278,-0.30533 0.6175,-0.54914 1.0186,-0.73144 0.4056,-0.18229 0.818,-0.27343 1.2373,-0.27344 0.3144,1e-5 0.622,0.041 0.9228,0.12305 0.3054,0.0775 0.5674,0.17774 0.7862,0.30078 l 0,-2.34473 c 0,-0.1914 -0.032,-0.36457 -0.096,-0.51953 -0.064,-0.1595 -0.1527,-0.28026 -0.2666,-0.3623 -0.1277,-0.0866 -0.3008,-0.14811 -0.5196,-0.18457 -0.2142,-0.041 -0.4466,-0.0706 -0.6972,-0.0889 l 0,-0.42383 2.7548,-0.15723 0.1026,0.10254 0,9.0918 c 0,0.15951 0.03,0.29622 0.089,0.41016 0.064,0.10937 0.155,0.2028 0.2735,0.28027 0.087,0.0547 0.2119,0.0889 0.376,0.10254 0.164,0.0137 0.3144,0.0228 0.4511,0.0273 l 0,0.44434 m -2.4677,-1.18262 0,-3.94434 c -0.036,-0.11848 -0.096,-0.24608 -0.1778,-0.38281 -0.082,-0.13671 -0.1845,-0.26204 -0.3076,-0.37597 -0.1322,-0.11393 -0.2871,-0.20735 -0.4648,-0.28028 -0.1778,-0.0775 -0.3851,-0.1162 -0.6221,-0.11621 -0.2734,1e-5 -0.5264,0.0707 -0.7588,0.21192 -0.2279,0.14128 -0.4307,0.34408 -0.6084,0.60839 -0.1686,0.25522 -0.3031,0.58106 -0.4033,0.97754 -0.096,0.39193 -0.1436,0.82716 -0.1436,1.30567 0,0.38281 0.036,0.73144 0.1094,1.0459 0.073,0.30989 0.196,0.59928 0.3691,0.86816 0.1596,0.25521 0.3624,0.46029 0.6084,0.61523 0.2507,0.15495 0.5469,0.23243 0.8887,0.23243 0.3646,0 0.6654,-0.0798 0.9024,-0.23926 0.2415,-0.15951 0.4443,-0.33496 0.6084,-0.52637"
         id="path3021"
         style="font-size:14px;line-height:125%;font-family:Georgia;-inkscape-font-specification:Georgia" />
      <path
         d="m -1118.3896,237.84208 -5.4551,0 0,-0.3623 3.8144,-5.82422 -0.9433,0 c -0.3965,1e-5 -0.7064,0.007 -0.9297,0.0205 -0.2233,0.0137 -0.4284,0.0592 -0.6153,0.13672 -0.1276,0.0501 -0.2483,0.19369 -0.3623,0.43066 -0.1093,0.23699 -0.205,0.54688 -0.2871,0.92969 l -0.417,0 0,-2.07129 5.1543,0 0,0.28027 -3.8759,5.90625 c 0.164,0.005 0.344,0.009 0.54,0.0137 0.196,0 0.4079,0 0.6357,0 0.1823,0 0.3715,-0.002 0.5674,-0.007 0.2005,-0.005 0.4557,-0.016 0.7656,-0.0342 0.1823,-0.009 0.3191,-0.0706 0.4102,-0.18457 0.096,-0.11393 0.1686,-0.24381 0.2188,-0.38965 0.05,-0.13216 0.1093,-0.31445 0.1777,-0.54687 0.073,-0.23242 0.1367,-0.45801 0.1914,-0.67676 l 0.4102,0 0,2.3789 m -0.8409,-9.98046 c 0,0.17318 -0.041,0.31446 -0.123,0.42382 -0.078,0.10939 -0.1937,0.2256 -0.3486,0.34864 -0.2279,0.1823 -0.5264,0.41472 -0.8956,0.69726 -0.3645,0.28256 -0.7587,0.59018 -1.1826,0.92285 l -0.2597,-0.21875 c 0.4101,-0.60611 0.6949,-1.03221 0.8545,-1.27832 0.164,-0.25064 0.3395,-0.52635 0.5263,-0.82714 0.1413,-0.23242 0.278,-0.38964 0.4102,-0.47168 0.1321,-0.0866 0.2848,-0.12988 0.458,-0.12989 0.164,1e-5 0.2985,0.057 0.4033,0.1709 0.1048,0.10939 0.1572,0.23015 0.1572,0.36231"
         id="path3023"
         style="font-size:14px;line-height:125%;font-family:Georgia;-inkscape-font-specification:Georgia" />
      <path
         d="m -1106.9873,237.84208 -2.0371,0 c -0.3555,-0.51497 -0.736,-1.0664 -1.1416,-1.65429 -0.4056,-0.58789 -0.8272,-1.15983 -1.2647,-1.71582 l -0.5605,0.52636 0,1.59961 c 0,0.16407 0.03,0.30079 0.089,0.41016 0.059,0.10482 0.1549,0.18229 0.2871,0.23242 0.1093,0.0456 0.2142,0.0798 0.3144,0.10254 0.1003,0.0228 0.2165,0.0387 0.3487,0.0478 l 0,0.45117 -3.3086,0 0,-0.45117 c 0.1048,-0.009 0.2141,-0.0182 0.3281,-0.0273 0.1139,-0.0137 0.2096,-0.0319 0.2871,-0.0547 0.1276,-0.041 0.2233,-0.11165 0.2871,-0.21191 0.064,-0.10482 0.096,-0.23926 0.096,-0.40332 l 0,-7.83399 c 0,-0.16861 -0.036,-0.32583 -0.1094,-0.47168 -0.068,-0.15038 -0.1595,-0.26431 -0.2734,-0.34179 -0.096,-0.0729 -0.2461,-0.12076 -0.4512,-0.14356 -0.2005,-0.0228 -0.3623,-0.0387 -0.4853,-0.0478 l 0,-0.4375 2.4951,-0.15723 0.096,0.10254 0,7.12989 c 0.3555,-0.35547 0.7383,-0.736 1.1484,-1.14161 0.4147,-0.41015 0.7634,-0.77473 1.0459,-1.09375 0.037,-0.041 0.075,-0.0934 0.1162,-0.15722 0.046,-0.0684 0.068,-0.12304 0.068,-0.16407 0,-0.12304 -0.1003,-0.21418 -0.3008,-0.27343 -0.196,-0.0592 -0.3851,-0.10026 -0.5674,-0.12305 l 0,-0.4375 2.9668,0 0,0.42383 c -0.3828,0.11394 -0.7223,0.25749 -1.0185,0.43066 -0.2917,0.16863 -0.515,0.3213 -0.6699,0.45801 -0.1094,0.0911 -0.2644,0.23926 -0.4649,0.44434 -0.2005,0.20508 -0.4808,0.47396 -0.8408,0.80664 0.3737,0.46029 0.793,1.01172 1.2578,1.65429 0.4694,0.64258 0.8112,1.10743 1.0254,1.39454 0.2005,0.26888 0.3805,0.44433 0.54,0.52636 0.1595,0.082 0.3919,0.13216 0.6973,0.15039 l 0,0.45117"
         id="path3025"
         style="font-size:14px;line-height:125%;font-family:Georgia;-inkscape-font-specification:Georgia" />
      <path
         d="m -1100.0693,234.40361 c 0,0.47396 -0.075,0.94108 -0.2256,1.40137 -0.1504,0.45573 -0.3646,0.8431 -0.6426,1.1621 -0.3145,0.36459 -0.679,0.63575 -1.0938,0.81348 -0.4147,0.17774 -0.8795,0.2666 -1.3945,0.2666 -0.4284,0 -0.8362,-0.0797 -1.2236,-0.23925 -0.3874,-0.16407 -0.7315,-0.40105 -1.0322,-0.71094 -0.2963,-0.30534 -0.5332,-0.67676 -0.711,-1.11426 -0.1732,-0.44206 -0.2597,-0.93652 -0.2597,-1.4834 0,-1.05273 0.3053,-1.91406 0.916,-2.58398 0.6152,-0.66992 1.4196,-1.00488 2.4131,-1.00489 0.9433,1e-5 1.7203,0.31902 2.331,0.95704 0.6152,0.63346 0.9229,1.47884 0.9229,2.53613 m -1.4151,0.0137 c 0,-0.34179 -0.034,-0.70182 -0.1025,-1.08008 -0.068,-0.38281 -0.1709,-0.70637 -0.3076,-0.9707 -0.1459,-0.28255 -0.3373,-0.50813 -0.5743,-0.67676 -0.2369,-0.17317 -0.5263,-0.25976 -0.8681,-0.25976 -0.3509,0 -0.6517,0.0866 -0.9024,0.25976 -0.2461,0.17318 -0.4466,0.41016 -0.6015,0.71094 -0.1459,0.278 -0.2484,0.59473 -0.3076,0.95019 -0.059,0.35548 -0.089,0.69955 -0.089,1.03223 0,0.4375 0.034,0.8431 0.1025,1.2168 0.073,0.36914 0.1869,0.69954 0.3418,0.99121 0.155,0.29167 0.3487,0.52181 0.5811,0.69043 0.237,0.16406 0.5286,0.24609 0.875,0.24609 0.5696,0 1.0208,-0.27571 1.3535,-0.82715 0.3327,-0.55143 0.499,-1.31249 0.499,-2.2832"
         id="path3027"
         style="font-size:14px;line-height:125%;font-family:Georgia;-inkscape-font-specification:Georgia" />
      <path
         d="m -1094.9287,237.54814 c -0.2962,0.12305 -0.5765,0.22559 -0.8408,0.30762 -0.2644,0.0866 -0.5879,0.12988 -0.9707,0.12988 -0.5651,0 -0.9639,-0.14128 -1.1963,-0.42383 -0.2279,-0.28711 -0.3418,-0.69043 -0.3418,-1.20996 l 0,-4.56641 -1.2168,0 0,-0.65625 1.2441,0 0,-2.09863 1.2442,0 0,2.09863 1.9345,0 0,0.65625 -1.9209,0 0,3.76661 c 0,0.28255 0.01,0.51953 0.027,0.71093 0.023,0.18685 0.073,0.35092 0.1504,0.49219 0.073,0.13216 0.1823,0.23242 0.3281,0.30078 0.1458,0.0684 0.3418,0.10254 0.5879,0.10254 0.1139,0 0.2803,-0.009 0.499,-0.0273 0.2233,-0.0228 0.3805,-0.0501 0.4717,-0.082 l 0,0.49902"
         id="path3029"
         style="font-size:14px;line-height:125%;font-family:Georgia;-inkscape-font-specification:Georgia" />
    </g>
    <rect
       width="135.23466"
       height="21.688578"
       rx="10.953043"
       ry="4.276206"
       x="-1201.0228"
       y="252.5903"
       id="rect3310"
       style="color:#000000;fill:#ffffff;fill-opacity:1;fill-rule:nonzero;stroke:#800000;stroke-width:1.63800001;stroke-linecap:round;stroke-linejoin:round;stroke-miterlimit:4;stroke-opacity:1;stroke-dasharray:none;stroke-dashoffset:0;marker:none;visibility:visible;display:inline;overflow:visible;enable-background:accumulate" />
    <rect
       width="44.015057"
       height="21.050678"
       rx="10.953043"
       ry="4.276206"
       x="-1157.4589"
       y="288.01639"
       id="rect3312"
       style="color:#000000;fill:#71c837;fill-opacity:1;fill-rule:nonzero;stroke:#aade87;stroke-width:1.63800001;stroke-linecap:round;stroke-linejoin:round;stroke-miterlimit:4;stroke-opacity:1;stroke-dasharray:none;stroke-dashoffset:0;marker:none;visibility:visible;display:inline;overflow:visible;enable-background:accumulate" />
    <path
       d="m -1140.7658,297.709 c 2.1936,1.77094 3.3224,4.1614 4.6367,6.44396 1.5253,-4.45526 4.3467,-8.47848 7.1114,-12.52059"
       id="path3318"
       style="fill:none;stroke:#aade87;stroke-width:1.69351172px;stroke-linecap:butt;stroke-linejoin:miter;stroke-opacity:1" />
  </g>
</svg>
